<?xml version="1.0" ?><svg viewBox="0 0 64 64" xmlns="http://www.w3.org/2000/svg"><g id="Outline"><g data-name="Outline" id="Outline-2"><path d="M32.25,33.25l2.81,1.27a2.59,2.59,0,0,0,2.6-.28,2.49,2.49,0,0,0,1-2.33l-.36-3a.5.5,0,0,1,.14-.42l2.1-2.23a2.49,2.49,0,0,0,.57-2.49,2.56,2.56,0,0,0-2-1.73l-3-.59a.58.58,0,0,1-.39-.27l-1.51-2.64a2.59,2.59,0,0,0-4.48,0l-1.51,2.64a.58.58,0,0,1-.39.27l-3,.59a2.56,2.56,0,0,0-2,1.73,2.49,2.49,0,0,0,.57,2.49l2.1,2.23a.49.49,0,0,1,.14.41l-.36,3a2.49,2.49,0,0,0,1,2.33,2.59,2.59,0,0,0,2.6.28l2.81-1.27A.62.62,0,0,1,32.25,33.25Zm-4.13-.56a.57.57,0,0,1-.6-.06.52.52,0,0,1-.22-.48l.37-3a2.55,2.55,0,0,0-.68-2L24.9,24.89a.47.47,0,0,1-.12-.51.54.54,0,0,1,.43-.38l3-.59A2.53,2.53,0,0,0,30,22.17l1.51-2.64a.6.6,0,0,1,1,0L34,22.17a2.53,2.53,0,0,0,1.74,1.24l3,.59a.54.54,0,0,1,.43.38.47.47,0,0,1-.12.51L37,27.11a2.55,2.55,0,0,0-.68,2l.37,3a.52.52,0,0,1-.22.48.55.55,0,0,1-.6.06l-2.81-1.26a2.62,2.62,0,0,0-2.14,0Z"/><path d="M61.91,42.58A1,1,0,0,0,61,42H52V39a1,1,0,0,0-1-1H49a20.5,20.5,0,1,0-33.9,0H13a1,1,0,0,0-1,1v3H3a1,1,0,0,0-.91.58,1,1,0,0,0,.15,1.07L7.68,50,2.24,56.35a1,1,0,0,0-.15,1.07A1,1,0,0,0,3,58H19a1,1,0,0,0,1-1V54H44v3a1,1,0,0,0,1,1H61a1,1,0,0,0,.91-.58,1,1,0,0,0-.15-1.07L56.32,50l5.44-6.35A1,1,0,0,0,61.91,42.58ZM13.5,26.5a18.5,18.5,0,1,1,33,11.5H42.36a15.5,15.5,0,1,0-20.72,0H17.53A18.52,18.52,0,0,1,13.5,26.5ZM14,40H28a1,1,0,0,0,0-2H25A13.5,13.5,0,1,1,39,38H36a1,1,0,0,0,0,2H50V52H14ZM9.76,50.65a1,1,0,0,0,0-1.3L5.17,44H12v9a1,1,0,0,0,.46.82h0L15.7,56H5.17ZM18,55.13,16.3,54H18ZM47.7,54,46,55.13V54Zm6.54-4.65a1,1,0,0,0,0,1.3L58.83,56H48.3l3.25-2.17h0A1,1,0,0,0,52,53V44h6.83Z"/><circle cx="32" cy="39" r="1"/></g></g></svg>